<?xml version="1.0" encoding="utf-8"?>
<!-- Generator: Adobe Illustrator 19.0.0, SVG Export Plug-In . SVG Version: 6.00 Build 0)  -->
<svg version="1.1" id="Layer_1" xmlns="http://www.w3.org/2000/svg" xmlns:xlink="http://www.w3.org/1999/xlink" x="0px" y="0px"
	 viewBox="-4201 2486.7 100.1 100.1" style="enable-background:new -4201 2486.7 100.1 100.1;" xml:space="preserve">
<g>
	<rect x="-4173.9" y="2528.5" width="19" height="58.3"/>
	<rect x="-4147" y="2544.3" width="19" height="42.5"/>
	<rect x="-4120" y="2517.6" width="19" height="69.1"/>
	<rect x="-4200.8" y="2550.5" width="19" height="36.3"/>
	<path d="M-4191.3,2536.2c4.4,0,7.9-3.5,7.9-7.9c0-1-0.2-2-0.6-2.9l15.2-12.4c1.2,0.8,2.7,1.3,4.3,1.3c2,0,3.9-0.8,5.3-2.1l13.9,8.2
		c-0.1,0.6-0.2,1.2-0.2,1.8c0,4.4,3.5,7.9,7.9,7.9c4.4,0,7.9-3.5,7.9-7.9c0-1.3-0.3-2.5-0.9-3.6l16.2-16.1c1.1,0.6,2.3,0.9,3.7,0.9
		c4.4,0,7.9-3.5,7.9-7.9c0-4.4-3.5-7.9-7.9-7.9s-7.9,3.5-7.9,7.9c0,1.3,0.3,2.5,0.9,3.6l-16.3,16.1c-1.1-0.6-2.3-0.9-3.7-0.9
		c-2,0-3.9,0.8-5.3,2.1l-13.9-8.2c0.1-0.6,0.2-1.2,0.2-1.8c0-4.4-3.5-7.9-7.9-7.9c-4.4,0-7.9,3.5-7.9,7.9c0,1,0.2,2,0.6,2.9
		l-15.2,12.4c-1.2-0.8-2.7-1.3-4.3-1.3c-4.4,0-7.9,3.5-7.9,7.9C-4199.2,2532.7-4195.7,2536.2-4191.3,2536.2z"/>
</g>
</svg>
