<?xml version="1.0" encoding="utf-8"?>
<!-- Generator: Adobe Illustrator 19.0.0, SVG Export Plug-In . SVG Version: 6.00 Build 0)  -->
<svg version="1.1" id="Layer_1" xmlns="http://www.w3.org/2000/svg" xmlns:xlink="http://www.w3.org/1999/xlink" x="0px" y="0px"
	 viewBox="-4201 2502.2 99.1 99.2" style="enable-background:new -4201 2502.2 99.1 99.2;" xml:space="preserve">
<style type="text/css">
	.st0{fill:#FFFFFF;}
	.st1{fill:none;stroke:#FFFFFF;stroke-width:4;stroke-linecap:round;stroke-linejoin:round;}
	.st2{fill:#FFFFFF;stroke:#FFFFFF;stroke-miterlimit:10;}
	.st3{fill:#FFFFFF;stroke:#FFFFFF;stroke-width:2;stroke-miterlimit:10;}
</style>
<g transform="translate(0,-952.36218)">
	<path class="st0" d="M-4040.4,3455.5c-15.5,0-28.2,12.7-28.2,28.2c0,7.2,2.7,13.8,7.2,18.7l-16.6,38.5c-0.7,1.7,0,3.5,1.7,4.3
		c0.8,0.4,1.8,0.4,2.6,0l10-4.1l4.1,10c0.7,1.7,2.6,2.5,4.2,1.8c0.8-0.3,1.5-1,1.8-1.8l13.3-32.7l13.3,32.7c0.7,1.7,2.6,2.5,4.2,1.8
		c0.8-0.3,1.5-1,1.8-1.8l4.1-10l10,4.1c1.7,0.7,3.5-0.1,4.2-1.8c0.3-0.8,0.3-1.8,0-2.6l-16.6-38.5c4.4-5,7.2-11.5,7.2-18.7
		C-4012.2,3468.2-4024.8,3455.5-4040.4,3455.5L-4040.4,3455.5z M-4040.4,3462.1c12,0,21.6,9.6,21.6,21.6s-9.6,21.6-21.6,21.6
		c-12,0-21.6-9.6-21.6-21.6S-4052.4,3462.1-4040.4,3462.1z M-4040.4,3464.3c-10.7,0-19.5,8.8-19.5,19.5s8.8,19.5,19.5,19.5
		c10.7,0,19.5-8.8,19.5-19.5S-4029.6,3464.3-4040.4,3464.3z M-4040.4,3470.8c7.2,0,13,5.8,13,13s-5.8,13-13,13c-7.2,0-13-5.8-13-13
		C-4053.4,3476.6-4047.6,3470.8-4040.4,3470.8z M-4056.3,3507.1c3.4,2.4,7.4,3.9,11.6,4.5l-12,29.7l-2.4-5.7
		c-0.7-1.7-2.6-2.5-4.2-1.8l0,0l-5.6,2.4L-4056.3,3507.1L-4056.3,3507.1z M-4024.5,3507.1l12.6,29.2l-5.6-2.4
		c-1.7-0.7-3.5,0.1-4.2,1.8l0,0l-2.4,5.7l-12-29.7C-4031.9,3511-4027.9,3509.4-4024.5,3507.1L-4024.5,3507.1z"/>
</g>
<g>
	<polygon class="st1" points="-4368.2,2505.4 -4414.6,2546.7 -4396.6,2598.2 -4339.8,2598.2 -4321.8,2546.7 	"/>
	<polygon class="st1" points="-4368.3,2516.4 -4405,2549 -4390.7,2589.8 -4345.8,2589.8 -4331.6,2549 	"/>
	<polygon class="st1" points="-4368.5,2527.8 -4395.9,2552.1 -4385.2,2582.6 -4351.7,2582.6 -4341,2552.1 	"/>
	<polygon class="st1" points="-4368.9,2538.8 -4387.4,2555.2 -4380.2,2575.8 -4357.6,2575.8 -4350.4,2555.2 	"/>
	<polygon class="st1" points="-4368.9,2547.7 -4379.4,2557.1 -4375.3,2568.8 -4362.4,2568.8 -4358.3,2557.1 	"/>
</g>
<g>
	<path class="st2" d="M-4451.1,2600.6h-79.2c-2,0-3.7-1.6-3.7-3.7v-20.7c0-2,1.6-3.7,3.7-3.7h79.2c2,0,3.7,1.6,3.7,3.7v20.8
		C-4447.5,2598.9-4449.1,2600.6-4451.1,2600.6z M-4530.3,2574.8c-0.7,0-1.2,0.6-1.2,1.3v20.8c0,0.7,0.5,1.2,1.2,1.2h79.2
		c0.7,0,1.2-0.5,1.2-1.2v-20.8c0-0.7-0.5-1.2-1.2-1.2h-79.2V2574.8z"/>
	<path class="st2" d="M-4455.1,2587.2h-70.9c-2,0-3.7-1.6-3.7-3.7v-2.8c0-2,1.6-3.7,3.7-3.7h70.9c2,0,3.7,1.6,3.7,3.7v2.8
		C-4451.5,2585.5-4453.1,2587.2-4455.1,2587.2z M-4526.1,2579.5c-0.7,0-1.2,0.5-1.2,1.2v2.8c0,0.7,0.5,1.2,1.2,1.2h70.9
		c0.7,0,1.2-0.5,1.2-1.2v-2.8c0-0.7-0.5-1.2-1.2-1.2H-4526.1z"/>
	<path class="st2" d="M-4444.6,2527.2h-38c-2,0-3.7-1.6-3.7-3.7v-16.9c0-2,1.6-3.7,3.7-3.7h38c2,0,3.7,1.6,3.7,3.7v17
		C-4440.9,2525.6-4442.6,2527.2-4444.6,2527.2z M-4482.6,2505.3c-0.7,0-1.2,0.5-1.2,1.2v17c0,0.7,0.5,1.2,1.2,1.2h38
		c0.7,0,1.2-0.5,1.2-1.2v-16.9c0-0.7-0.5-1.2-1.2-1.2h-38V2505.3z"/>
	<path class="st2" d="M-4450.9,2522.9h-24.2c-1.8,0-3.2-1.4-3.2-3.2v-8.6c0-1.8,1.4-3.2,3.2-3.2h24.1c1.8,0,3.2,1.4,3.2,3.2v8.6
		C-4447.7,2521.5-4449.2,2522.9-4450.9,2522.9z M-4475,2510.4c-0.4,0-0.8,0.3-0.8,0.8v8.6c0,0.4,0.3,0.8,0.8,0.8h24.1
		c0.4,0,0.8-0.3,0.8-0.8v-8.7c0-0.4-0.3-0.8-0.8-0.8L-4475,2510.4L-4475,2510.4z"/>
	<path class="st2" d="M-4475.9,2539.5h-27.7c-2,0-3.7-1.6-3.7-3.7v-2.2c0-2,1.6-3.7,3.7-3.7h27.7c2,0,3.7,1.6,3.7,3.7v2.2
		C-4472.1,2537.9-4473.8,2539.5-4475.9,2539.5z M-4503.6,2532.4c-0.7,0-1.2,0.5-1.2,1.2v2.2c0,0.7,0.5,1.2,1.2,1.2h27.7
		c0.7,0,1.2-0.5,1.2-1.2v-2.2c0-0.7-0.5-1.2-1.2-1.2H-4503.6z"/>
	<path class="st2" d="M-4495.3,2556h-5.7c-2,0-3.7-1.6-3.7-3.7v-5.7c0-2,1.6-3.7,3.7-3.7h5.7c2,0,3.7,1.6,3.7,3.7v5.7
		C-4491.6,2554.3-4493.2,2556-4495.3,2556z M-4500.9,2545.5c-0.7,0-1.2,0.5-1.2,1.2v5.7c0,0.7,0.5,1.2,1.2,1.2h5.7
		c0.7,0,1.2-0.5,1.2-1.2v-5.7c0-0.7-0.5-1.2-1.2-1.2H-4500.9z"/>
	<path class="st2" d="M-4480.3,2556h-5.7c-2,0-3.7-1.6-3.7-3.7v-5.7c0-2,1.6-3.7,3.7-3.7h5.7c2,0,3.7,1.6,3.7,3.7v5.7
		C-4476.6,2554.3-4478.3,2556-4480.3,2556z M-4486,2545.5c-0.7,0-1.2,0.5-1.2,1.2v5.7c0,0.7,0.5,1.2,1.2,1.2h5.7
		c0.7,0,1.2-0.5,1.2-1.2v-5.7c0-0.7-0.5-1.2-1.2-1.2H-4486z"/>
	<path class="st2" d="M-4495.3,2570.4h-5.7c-2,0-3.7-1.6-3.7-3.7v-5.7c0-2,1.6-3.7,3.7-3.7h5.7c2,0,3.7,1.6,3.7,3.7v5.8
		C-4491.6,2568.7-4493.2,2570.4-4495.3,2570.4z M-4500.9,2559.9c-0.7,0-1.2,0.5-1.2,1.2v5.7c0,0.7,0.5,1.2,1.2,1.2h5.7
		c0.7,0,1.2-0.5,1.2-1.2v-5.7c0-0.7-0.5-1.2-1.2-1.2H-4500.9z"/>
	<path class="st2" d="M-4480.3,2570.4h-5.7c-2,0-3.7-1.6-3.7-3.7v-5.7c0-2,1.6-3.7,3.7-3.7h5.7c2,0,3.7,1.6,3.7,3.7v5.8
		C-4476.6,2568.7-4478.3,2570.4-4480.3,2570.4z M-4486,2559.9c-0.7,0-1.2,0.5-1.2,1.2v5.7c0,0.7,0.5,1.2,1.2,1.2h5.7
		c0.7,0,1.2-0.5,1.2-1.2v-5.7c0-0.7-0.5-1.2-1.2-1.2H-4486z"/>
	<path class="st2" d="M-4455.9,2573.8c-0.6,0-1.1-0.4-1.2-1l-6.5-46c-0.1-0.7,0.4-1.3,1-1.4c0.7-0.1,1.3,0.4,1.4,1l6.5,46.1
		c0.1,0.7-0.4,1.3-1,1.4C-4455.8,2573.8-4455.8,2573.8-4455.9,2573.8z"/>
	<path class="st2" d="M-4526.1,2573.6c-0.1,0-0.1,0-0.2,0c-0.7-0.1-1.1-0.8-1-1.4l8.9-47.6c0.1-0.6,0.6-1,1.2-1h31
		c0.7,0,1.2,0.5,1.2,1.2s-0.5,1.2-1.2,1.2h-30l-8.7,46.6C-4525,2573.2-4525.5,2573.6-4526.1,2573.6z"/>
</g>
<path class="st2" d="M-4198.6,2516.4h7.4v82c0,1.2,1,2.3,2.3,2.3h1.5c0.6,0,1.2-0.2,1.6-0.7l7.1-7.1l7.1,7.1c0.4,0.4,1,0.7,1.6,0.7
	h0.4c0.6,0,1.2-0.2,1.6-0.7l7.1-7.1l7.1,7.1c0.4,0.4,1,0.7,1.6,0.7h0.4c0.6,0,1.2-0.2,1.6-0.7l7.1-7.1l7.1,7.1
	c0.4,0.4,1,0.7,1.6,0.7h0.4c0.6,0,1.2-0.2,1.6-0.7l7.1-7.1l7.1,7.1c0.4,0.4,1,0.7,1.6,0.7h2c1.2,0,2.3-1,2.3-2.3v-82h7.4v-13.3
	h-93.2L-4198.6,2516.4L-4198.6,2516.4z M-4117.2,2595.1l-6.8-6.8c-0.9-0.9-2.3-0.9-3.1,0l-7.3,7.3l-7.3-7.3c-0.4-0.4-1-0.7-1.6-0.7
	s-1.2,0.2-1.6,0.7l-7.3,7.3l-7.3-7.3c-0.9-0.9-2.3-0.9-3.1,0l-7.3,7.3l-7.3-7.3c-0.9-0.9-2.3-0.9-3.1,0l-6.3,6.3v-78.1h69.6v78.6
	H-4117.2z"/>
<rect x="-4182.3" y="2523.8" class="st2" width="42.9" height="4.4"/>
<rect x="-4182.3" y="2537.2" class="st2" width="34" height="4.4"/>
<rect x="-4182.3" y="2551.9" class="st2" width="42.9" height="4.4"/>
<rect x="-4182.3" y="2566.7" class="st2" width="42.9" height="4.4"/>
<g>
	<path class="st3" d="M-4218.8,2558.7c-3.9-2.5-5-7.6-2.5-11.5c0.6-1,1.5-1.9,2.5-2.5c2.8-1.7,4-5.1,3-8.2c-0.6-1.9-1.4-3.8-2.3-5.6
		c-1.4-2.9-4.6-4.4-7.7-3.7c-4.5,1.1-8.9-1.7-10-6.2c-0.3-1.3-0.3-2.6,0-3.8c0.7-3.1-0.9-6.3-3.7-7.7c-1.8-0.9-3.7-1.7-5.6-2.3
		c-3.1-1-6.5,0.2-8.2,3c-2.5,3.9-7.6,5-11.5,2.5c-1-0.6-1.9-1.5-2.5-2.5c-1.7-2.8-5.1-4-8.2-3c-1.9,0.6-3.8,1.4-5.5,2.3
		c-2.9,1.4-4.4,4.6-3.7,7.7c1.1,4.5-1.7,8.9-6.2,10c-1.3,0.3-2.6,0.3-3.8,0c-3.1-0.7-6.3,0.8-7.7,3.7c-0.9,1.8-1.7,3.7-2.3,5.6
		c-1,3.1,0.2,6.5,3,8.2c3.9,2.5,5,7.6,2.5,11.5c-0.6,1-1.5,1.9-2.5,2.5c-2.8,1.7-4,5.1-3,8.2c0.6,1.9,1.4,3.8,2.3,5.5
		c1.4,2.9,4.6,4.4,7.7,3.7c4.5-1.1,8.9,1.7,10,6.2c0.3,1.3,0.3,2.6,0,3.8c-0.7,3.1,0.9,6.3,3.7,7.7c1.8,0.9,3.7,1.7,5.6,2.3
		c3.1,1,6.5-0.2,8.2-3c2.5-3.9,7.6-5,11.5-2.5c1,0.6,1.9,1.5,2.5,2.5c1.3,2.1,3.6,3.3,6,3.3c0.7,0,1.5-0.1,2.2-0.4
		c1.9-0.6,3.8-1.4,5.5-2.3c2.9-1.4,4.4-4.6,3.7-7.7c-1.1-4.5,1.7-8.9,6.2-10c1.3-0.3,2.6-0.3,3.8,0c3.1,0.7,6.3-0.8,7.7-3.7
		c0.9-1.8,1.7-3.7,2.3-5.6C-4214.8,2563.8-4216,2560.4-4218.8,2558.7z M-4219.6,2565.6c-0.6,1.7-1.3,3.4-2.1,5.1
		c-0.6,1.2-1.9,1.9-3.2,1.6c-6.6-1.6-13.3,2.5-14.8,9.1c-0.5,1.9-0.5,3.9,0,5.7c0.3,1.3-0.4,2.6-1.6,3.2c-1.6,0.8-3.3,1.5-5.1,2.1
		c-1.3,0.4-2.8-0.1-3.5-1.3c-3.7-5.7-11.3-7.4-17-3.7c-1.5,1-2.8,2.2-3.7,3.7c-0.7,1.2-2.2,1.8-3.5,1.3c-1.7-0.6-3.4-1.3-5.1-2.1
		c-1.2-0.6-1.9-1.9-1.6-3.2c1.6-6.6-2.5-13.3-9.1-14.8c-1.9-0.5-3.8-0.5-5.7,0c-1.3,0.3-2.6-0.4-3.2-1.6c-0.8-1.6-1.5-3.3-2.1-5.1
		c-0.4-1.3,0.1-2.8,1.3-3.5c5.7-3.7,7.4-11.3,3.8-17c-1-1.5-2.2-2.8-3.8-3.8c-1.2-0.7-1.8-2.2-1.3-3.5c0.6-1.7,1.3-3.4,2.1-5.1
		c0.6-1.2,1.9-1.9,3.2-1.6c6.6,1.6,13.3-2.5,14.8-9.1c0.4-1.9,0.4-3.8,0-5.7c-0.3-1.3,0.4-2.6,1.6-3.2c1.6-0.8,3.3-1.5,5.1-2.1
		c1.3-0.4,2.8,0.1,3.5,1.3c3.7,5.7,11.3,7.4,17,3.7c1.5-1,2.8-2.2,3.8-3.7c0.7-1.2,2.2-1.8,3.5-1.3c1.7,0.6,3.4,1.3,5.1,2.1
		c1.2,0.6,1.9,1.9,1.6,3.2c-1.6,6.6,2.5,13.3,9.1,14.8c1.9,0.5,3.8,0.5,5.7,0c1.3-0.3,2.6,0.4,3.2,1.6c0.8,1.6,1.5,3.3,2.1,5.1
		c0.4,1.3-0.1,2.8-1.3,3.5c-5.7,3.7-7.4,11.3-3.8,17c1,1.5,2.2,2.8,3.8,3.8C-4219.8,2562.8-4219.2,2564.3-4219.6,2565.6
		L-4219.6,2565.6z"/>
	<path class="st3" d="M-4260.3,2533.2c-10.3,0-18.6,8.3-18.6,18.6s8.3,18.6,18.6,18.6c10.3,0,18.6-8.3,18.6-18.6
		C-4241.8,2541.5-4250.1,2533.2-4260.3,2533.2z M-4260.3,2566.3c-8.1,0-14.6-6.5-14.6-14.6s6.5-14.6,14.6-14.6
		c8,0,14.6,6.5,14.6,14.6C-4245.8,2559.8-4252.3,2566.3-4260.3,2566.3L-4260.3,2566.3z"/>
</g>
</svg>
